<?xml version="1.0" encoding="UTF-8" standalone="no"?>
<svg width="100%" height="100%" viewBox="0 0 534 155" version="1.1" xmlns="http://www.w3.org/2000/svg" xmlns:xlink="http://www.w3.org/1999/xlink" xml:space="preserve" xmlns:serif="http://www.serif.com/" style="fill-rule:evenodd;clip-rule:evenodd;stroke-linejoin:round;stroke-miterlimit:2;">
    <g id="logo">
        <g id="logo__roof">
            <path d="M68.489,20.209l25.261,-20.209l93.75,75l-38.542,-0l-55.208,-43.75l-55.208,43.75l-38.542,0l39.043,-31.234l-0,-43.766l29.446,-0l-0,20.209Z" />
        </g>
        <g id="logo__maintenance">
            <path d="M287.263,115.585l9.159,0l4.083,27.878l0.117,0l4.083,-27.878l9.158,0l0,38.951l-6.066,0l-0,-29.491l-0.117,-0l-4.667,29.491l-5.366,0l-4.667,-29.491l-0.117,-0l0,29.491l-5.6,0l0,-38.951Z" style="fill-rule:nonzero;" />
            <path d="M323.605,115.585l8.692,0l6.65,38.891l-6.417,0l-1.167,-7.722l0,0.111l-7.291,-0l-1.167,7.611l-5.95,0l6.65,-38.891Zm7,26.002l-2.858,-19.224l-0.117,0l-2.8,19.224l5.775,-0Z" style="fill-rule:nonzero;" />
            <rect x="342.038" y="115.585" width="6.417" height="38.891" style="fill-rule:nonzero;" />
            <path d="M353.238,115.585l8.05,0l6.242,23.279l0.117,0l-0,-23.279l5.716,0l0,38.891l-6.591,0l-7.7,-28.39l-0.117,-0l0,28.39l-5.717,0l0,-38.891Z" style="fill-rule:nonzero;" />
            <path d="M383.163,121.15l-6.708,-0l0,-5.565l19.833,0l0,5.565l-6.708,-0l0,33.386l-6.417,0l0,-33.386Z" style="fill-rule:nonzero;" />
            <path d="M399.38,115.585l17.5,0l0,5.565l-11.083,-0l-0,10.294l8.808,0l0,5.564l-8.808,0l-0,11.964l11.083,-0l0,5.564l-17.5,0l0,-38.951Z" style="fill-rule:nonzero;" />
            <path d="M420.555,115.705l8.05,0l6.242,23.243l0.116,0l0,-23.243l5.717,0l0,38.831l-6.592,0l-7.7,-28.346l-0.116,-0l-0,28.346l-5.717,0l0,-38.831Z" style="fill-rule:nonzero;" />
            <path d="M450.422,115.705l8.691,0l6.65,38.831l-6.416,0l-1.167,-7.71l0,0.111l-7.292,-0l-1.166,7.599l-5.95,0l6.65,-38.831Zm7,25.962l-2.859,-19.194l-0.116,0l-2.8,19.194l5.775,-0Z" style="fill-rule:nonzero;" />
            <path d="M468.855,115.645l8.05,0l6.242,23.279l0.116,0l0,-23.279l5.717,0l0,38.891l-6.592,0l-7.7,-28.39l-0.116,-0l-0,28.39l-5.717,0l0,-38.891Z" style="fill-rule:nonzero;" />
            <path d="M502.805,154.536c-3.072,0 -5.415,-0.811 -7.029,-2.434c-1.614,-1.623 -2.421,-3.913 -2.421,-6.871l0,-20.341c0,-2.957 0.807,-5.247 2.421,-6.87c1.614,-1.623 3.957,-2.435 7.029,-2.435c3.072,0 5.415,0.812 7.029,2.435c1.614,1.623 2.421,3.913 2.421,6.87l0,4.004l-6.067,-0l0,-4.382c0,-2.345 -1.069,-3.517 -3.208,-3.517c-2.139,0 -3.208,1.172 -3.208,3.517l-0,21.152c-0,2.308 1.069,3.463 3.208,3.463c2.139,-0 3.208,-1.155 3.208,-3.463l0,-5.788l6.067,-0l0,5.355c0,2.958 -0.807,5.248 -2.421,6.871c-1.614,1.623 -3.957,2.434 -7.029,2.434Z" style="fill-rule:nonzero;" />
            <path d="M516.105,115.645l17.5,0l0,5.556l-11.083,0l-0,10.279l8.808,-0l0,5.555l-8.808,0l-0,11.945l11.083,0l0,5.556l-17.5,0l0,-38.891Z" style="fill-rule:nonzero;" />
        </g>
        <g id="logo__roofing-gutter">
            <path d="M286.75,79.152l7.471,-0c2.597,-0 4.491,0.591 5.683,1.772c1.192,1.182 1.788,3 1.788,5.453l-0,1.929c-0,3.261 -1.1,5.325 -3.3,6.193l-0,0.09c1.222,0.359 2.085,1.092 2.589,2.199c0.504,1.107 0.756,2.587 0.756,4.442l0,5.52c0,0.897 0.031,1.623 0.092,2.176c0.061,0.554 0.214,1.1 0.458,1.638l-5.133,0c-0.183,-0.508 -0.305,-0.987 -0.367,-1.436c-0.061,-0.449 -0.091,-1.256 -0.091,-2.423l-0,-5.744c-0,-1.436 -0.237,-2.438 -0.711,-3.007c-0.473,-0.568 -1.291,-0.852 -2.452,-0.852l-1.741,-0l-0,13.462l-5.042,0l-0,-31.412Zm6.875,13.462c1.008,0 1.765,-0.254 2.269,-0.763c0.504,-0.508 0.756,-1.361 0.756,-2.557l-0,-2.424c-0,-1.137 -0.206,-1.959 -0.619,-2.468c-0.412,-0.508 -1.062,-0.763 -1.948,-0.763l-2.291,0l-0,8.975l1.833,0Z" style="fill-rule:nonzero;" />
            <path d="M312.096,111.013c-2.475,-0 -4.37,-0.688 -5.684,-2.064c-1.313,-1.376 -1.97,-3.321 -1.97,-5.834l-0,-16.514c-0,-2.513 0.657,-4.458 1.97,-5.834c1.314,-1.376 3.209,-2.064 5.684,-2.064c2.475,0 4.369,0.688 5.683,2.064c1.314,1.376 1.971,3.321 1.971,5.834l-0,16.514c-0,2.513 -0.657,4.458 -1.971,5.834c-1.314,1.376 -3.208,2.064 -5.683,2.064Zm-0,-4.488c1.741,0 2.612,-1.032 2.612,-3.096l0,-17.142c0,-2.064 -0.871,-3.096 -2.612,-3.096c-1.742,-0 -2.613,1.032 -2.613,3.096l0,17.142c0,2.064 0.871,3.096 2.613,3.096Z" style="fill-rule:nonzero;" />
            <path d="M330.017,111.013c-2.475,-0 -4.37,-0.688 -5.684,-2.064c-1.314,-1.376 -1.971,-3.321 -1.971,-5.834l0,-16.514c0,-2.513 0.657,-4.458 1.971,-5.834c1.314,-1.376 3.209,-2.064 5.684,-2.064c2.475,0 4.369,0.688 5.683,2.064c1.314,1.376 1.971,3.321 1.971,5.834l-0,16.514c-0,2.513 -0.657,4.458 -1.971,5.834c-1.314,1.376 -3.208,2.064 -5.683,2.064Zm-0,-4.488c1.741,0 2.612,-1.032 2.612,-3.096l0,-17.142c0,-2.064 -0.871,-3.096 -2.612,-3.096c-1.742,-0 -2.613,1.032 -2.613,3.096l0,17.142c0,2.064 0.871,3.096 2.613,3.096Z" style="fill-rule:nonzero;" />
            <path d="M340.65,79.152l13.337,-0l0,4.487l-8.295,0l-0,8.751l6.508,-0l-0,4.487l-6.508,0l-0,13.687l-5.042,0l-0,-31.412Z" style="fill-rule:nonzero;" />
            <rect x="356.004" y="79.152" width="5.042" height="31.412" style="fill-rule:nonzero;" />
            <path d="M364.392,79.152l6.325,-0l4.904,18.802l0.091,0l0,-18.802l4.492,-0l0,31.412l-5.179,0l-6.05,-22.931l-0.092,0l0,22.931l-4.491,0l-0,-31.412Z" style="fill-rule:nonzero;" />
            <path d="M390.7,111.013c-2.445,-0 -4.308,-0.681 -5.592,-2.042c-1.283,-1.361 -1.925,-3.313 -1.925,-5.856l0,-16.514c0,-2.543 0.642,-4.495 1.925,-5.856c1.284,-1.361 3.147,-2.042 5.592,-2.042c2.444,0 4.308,0.681 5.592,2.042c1.283,1.361 1.925,3.313 1.925,5.856l-0,2.693l-4.767,-0l-0,-3.007c-0,-2.064 -0.871,-3.096 -2.613,-3.096c-1.741,-0 -2.612,1.032 -2.612,3.096l-0,17.187c-0,2.034 0.871,3.051 2.612,3.051c1.742,0 2.613,-1.017 2.613,-3.051l-0,-6.148l-2.521,0l0,-4.487l7.288,-0l-0,10.276c-0,2.543 -0.642,4.495 -1.925,5.856c-1.284,1.361 -3.148,2.042 -5.592,2.042Z" style="fill-rule:nonzero;" />
            <path d="M413.25,111.013c-1.833,-0 -3.224,-0.613 -4.171,-1.84c-0.947,-1.226 -1.421,-3.007 -1.421,-5.34l0,-3.276c0,-1.645 0.291,-3.021 0.871,-4.128c0.581,-1.107 1.528,-1.915 2.842,-2.424l-0,-0.089c-1.192,-0.479 -2.07,-1.249 -2.636,-2.311c-0.565,-1.062 -0.848,-2.431 -0.848,-4.106l0,-0.584c0,-2.543 0.627,-4.472 1.88,-5.789c1.252,-1.316 3.132,-1.974 5.637,-1.974l5.775,-0l0,4.487l-5.683,0c-0.825,0 -1.459,0.24 -1.902,0.718c-0.443,0.479 -0.665,1.257 -0.665,2.334l0,1.929c0,1.197 0.252,2.05 0.756,2.558c0.505,0.509 1.261,0.763 2.269,0.763l1.971,0l-0,-3.5l4.95,-0l-0,3.5l1.421,0l-0,4.488l-1.421,-0l-0,10.321c-0,0.897 0.03,1.623 0.092,2.176c0.061,0.554 0.213,1.1 0.458,1.638l-5.042,0c-0.244,-0.658 -0.397,-1.481 -0.458,-2.468l-0.092,0c-0.55,0.987 -1.184,1.72 -1.902,2.199c-0.718,0.479 -1.612,0.718 -2.681,0.718Zm1.879,-4.488c1.589,0 2.521,-0.942 2.796,-2.827l-0,-7.269l-1.925,-0c-1.161,-0 -2.001,0.306 -2.521,0.92c-0.519,0.613 -0.779,1.638 -0.779,3.074l-0,3.186c-0,1.047 0.214,1.795 0.642,2.243c0.427,0.449 1.023,0.673 1.787,0.673Z" style="fill-rule:nonzero;" />
            <path d="M440.75,111.013c-2.445,-0 -4.308,-0.681 -5.592,-2.042c-1.283,-1.361 -1.925,-3.313 -1.925,-5.856l0,-16.514c0,-2.543 0.642,-4.495 1.925,-5.856c1.284,-1.361 3.147,-2.042 5.592,-2.042c2.444,0 4.308,0.681 5.592,2.042c1.283,1.361 1.925,3.313 1.925,5.856l-0,2.693l-4.767,-0l-0,-3.007c-0,-2.064 -0.871,-3.096 -2.613,-3.096c-1.741,-0 -2.612,1.032 -2.612,3.096l-0,17.187c-0,2.034 0.871,3.051 2.612,3.051c1.742,0 2.613,-1.017 2.613,-3.051l-0,-6.148l-2.521,0l0,-4.487l7.288,-0l-0,10.276c-0,2.543 -0.642,4.495 -1.925,5.856c-1.284,1.361 -3.148,2.042 -5.592,2.042Z" style="fill-rule:nonzero;" />
            <path d="M458.442,111.013c-2.445,-0 -4.309,-0.681 -5.592,-2.042c-1.283,-1.361 -1.925,-3.313 -1.925,-5.856l-0,-23.963l5.042,-0l-0,24.322c-0,1.077 0.221,1.855 0.664,2.333c0.443,0.479 1.077,0.718 1.902,0.718c0.825,0 1.459,-0.239 1.902,-0.718c0.443,-0.478 0.665,-1.256 0.665,-2.333l-0,-24.322l4.858,-0l0,23.963c0,2.543 -0.641,4.495 -1.925,5.856c-1.283,1.361 -3.147,2.042 -5.591,2.042Z" style="fill-rule:nonzero;" />
            <path d="M473.062,83.639l-5.27,0l-0,-4.487l15.583,-0l-0,4.487l-5.271,0l0,26.925l-5.042,0l0,-26.925Z" style="fill-rule:nonzero;" />
            <path d="M489.792,83.639l-5.271,0l-0,-4.487l15.583,-0l0,4.487l-5.271,0l0,26.925l-5.041,0l-0,-26.925Z" style="fill-rule:nonzero;" />
            <path d="M502.121,79.152l13.75,-0l-0,4.487l-8.709,0l0,8.302l6.921,0l0,4.488l-6.921,-0l0,9.648l8.709,-0l-0,4.487l-13.75,0l-0,-31.412Z" style="fill-rule:nonzero;" />
            <path d="M518.346,79.152l7.337,-0c2.551,-0 4.411,0.591 5.581,1.772c1.171,1.182 1.756,3 1.756,5.453l-0,1.929c-0,3.261 -1.08,5.325 -3.241,6.193l-0,0.09c1.2,0.359 2.048,1.092 2.543,2.199c0.495,1.107 0.743,2.587 0.743,4.442l-0,5.52c-0,0.897 0.03,1.623 0.09,2.176c0.06,0.554 0.21,1.1 0.45,1.638l-5.041,0c-0.18,-0.508 -0.3,-0.987 -0.36,-1.436c-0.06,-0.449 -0.091,-1.256 -0.091,-2.423l0,-5.744c0,-1.436 -0.232,-2.438 -0.697,-3.007c-0.465,-0.568 -1.268,-0.852 -2.408,-0.852l-1.711,-0l0,13.462l-4.951,0l-0,-31.412Zm6.752,13.462c0.99,0 1.733,-0.254 2.228,-0.763c0.495,-0.508 0.742,-1.361 0.742,-2.557l0,-2.424c0,-1.137 -0.202,-1.959 -0.607,-2.468c-0.405,-0.508 -1.043,-0.763 -1.913,-0.763l-2.251,0l0,8.975l1.801,0Z" style="fill-rule:nonzero;" />
        </g>
        <g id="logo__premier">
            <path d="M-0,78.703l17.55,0c5.922,0 10.364,1.589 13.325,4.767c2.961,3.178 4.442,7.836 4.442,13.975l-0,7.475c-0,6.139 -1.481,10.797 -4.442,13.975c-2.961,3.178 -7.403,4.766 -13.325,4.766l-5.633,0l-0,30.875l-11.917,0l-0,-75.833Zm17.55,34.125c1.95,0 3.412,-0.542 4.387,-1.625c0.975,-1.083 1.463,-2.925 1.463,-5.525l-0,-8.992c-0,-2.6 -0.488,-4.441 -1.463,-5.525c-0.975,-1.083 -2.437,-1.625 -4.387,-1.625l-5.633,0l-0,23.292l5.633,0Z" style="fill:#AB2330;fill-rule:nonzero;" />
            <path d="M41.817,78.703l17.658,0c6.139,0 10.617,1.426 13.433,4.279c2.817,2.853 4.225,7.241 4.225,13.163l0,4.658c0,7.872 -2.6,12.856 -7.8,14.95l0,0.217c2.889,0.866 4.929,2.636 6.121,5.308c1.192,2.672 1.788,6.247 1.788,10.725l-0,13.325c-0,2.167 0.072,3.918 0.216,5.254c0.145,1.336 0.506,2.654 1.084,3.954l-12.134,0c-0.433,-1.227 -0.722,-2.383 -0.866,-3.466c-0.145,-1.084 -0.217,-3.034 -0.217,-5.85l0,-13.867c0,-3.467 -0.56,-5.886 -1.679,-7.258c-1.12,-1.372 -3.052,-2.059 -5.796,-2.059l-4.117,0l0,32.5l-11.916,0l-0,-75.833Zm16.25,32.5c2.383,0 4.171,-0.614 5.362,-1.842c1.192,-1.227 1.788,-3.286 1.788,-6.175l-0,-5.85c-0,-2.744 -0.488,-4.73 -1.463,-5.958c-0.975,-1.228 -2.51,-1.842 -4.604,-1.842l-5.417,0l0,21.667l4.334,0Z" style="fill:#AB2330;fill-rule:nonzero;" />
            <path d="M85.475,78.703l32.5,0l-0,10.833l-20.583,0l-0,20.042l16.358,0l-0,10.833l-16.358,0l-0,23.292l20.583,0l-0,10.833l-32.5,0l0,-75.833Z" style="fill:#AB2330;fill-rule:nonzero;" />
            <path d="M124.8,78.703l17.008,0l7.584,54.275l0.216,0l7.584,-54.275l17.008,0l0,75.833l-11.267,0l0,-57.416l-0.216,-0l-8.667,57.416l-9.967,0l-8.666,-57.416l-0.217,-0l0,57.416l-10.4,0l0,-75.833Z" style="fill:#AB2330;fill-rule:nonzero;" />
            <rect x="183.083" y="78.703" width="11.917" height="75.833" style="fill:#AB2330;fill-rule:nonzero;" />
            <path d="M203.883,78.703l32.5,0l0,10.833l-20.583,0l-0,20.042l16.358,0l0,10.833l-16.358,0l-0,23.292l20.583,0l0,10.833l-32.5,0l0,-75.833Z" style="fill:#AB2330;fill-rule:nonzero;" />
            <path d="M243.208,78.703l17.659,0c6.139,0 10.616,1.426 13.433,4.279c2.817,2.853 4.225,7.241 4.225,13.163l-0,4.658c-0,7.872 -2.6,12.856 -7.8,14.95l0,0.217c2.889,0.866 4.929,2.636 6.121,5.308c1.191,2.672 1.787,6.247 1.787,10.725l0,13.325c0,2.167 0.073,3.918 0.217,5.254c0.144,1.336 0.506,2.654 1.083,3.954l-12.133,0c-0.433,-1.227 -0.722,-2.383 -0.867,-3.466c-0.144,-1.084 -0.216,-3.034 -0.216,-5.85l-0,-13.867c-0,-3.467 -0.56,-5.886 -1.68,-7.258c-1.119,-1.372 -3.051,-2.059 -5.795,-2.059l-4.117,0l-0,32.5l-11.917,0l0,-75.833Zm16.25,32.5c2.384,0 4.171,-0.614 5.363,-1.842c1.191,-1.227 1.787,-3.286 1.787,-6.175l0,-5.85c0,-2.744 -0.487,-4.73 -1.462,-5.958c-0.975,-1.228 -2.51,-1.842 -4.604,-1.842l-5.417,0l-0,21.667l4.333,0Z" style="fill:#AB2330;fill-rule:nonzero;" />
        </g>
        <g id="logo__est">
            <rect id="Background" x="381.197" y="31.303" width="152.408" height="43.697" style="fill:#AB2330;" />
            <g id="Text">
                <path id="_6" serif:id="6" d="M518.344,65.323c-1.826,0 -3.224,-0.518 -4.193,-1.555c-0.969,-1.037 -1.454,-2.502 -1.454,-4.395l0,-12.24c0,-4.102 1.894,-6.153 5.68,-6.153c1.804,-0 3.179,0.513 4.125,1.538c0.947,1.026 1.42,2.497 1.42,4.413l0,0.439l-3.516,0l0,-0.676c0,-1.555 -0.642,-2.333 -1.927,-2.333c-0.699,-0 -1.217,0.214 -1.555,0.642c-0.339,0.429 -0.508,1.184 -0.508,2.266l0,4.53l0.068,0c0.654,-1.375 1.781,-2.062 3.381,-2.062c1.353,-0 2.378,0.462 3.077,1.386c0.699,0.924 1.048,2.265 1.048,4.023l0,4.227c0,1.893 -0.485,3.358 -1.454,4.395c-0.969,1.037 -2.367,1.555 -4.192,1.555Zm-0,-3.381c1.284,0 1.927,-0.766 1.927,-2.299l-0,-4.192c-0,-1.556 -0.643,-2.333 -1.927,-2.333c-1.285,-0 -1.928,0.777 -1.928,2.333l0,4.192c0,1.533 0.643,2.299 1.928,2.299Z" style="fill:#fff;fill-rule:nonzero;" />
                <path id="_8" serif:id="8" d="M504.718,65.323c-1.871,0 -3.308,-0.501 -4.311,-1.504c-1.003,-1.003 -1.504,-2.451 -1.504,-4.345l-0,-2.096c-0,-1.172 0.191,-2.158 0.574,-2.958c0.384,-0.801 1.003,-1.426 1.86,-1.877l-0,-0.068c-0.789,-0.428 -1.369,-1.02 -1.741,-1.775c-0.372,-0.755 -0.558,-1.718 -0.558,-2.89l-0,-0.981c-0,-1.893 0.49,-3.342 1.471,-4.345c0.98,-1.003 2.383,-1.504 4.209,-1.504c1.826,-0 3.229,0.501 4.209,1.504c0.981,1.003 1.471,2.452 1.471,4.345l0,0.981c0,2.254 -0.766,3.809 -2.299,4.665l0,0.068c0.857,0.451 1.476,1.076 1.86,1.877c0.383,0.8 0.574,1.786 0.574,2.958l0,2.096c0,1.894 -0.501,3.342 -1.504,4.345c-1.003,1.003 -2.44,1.504 -4.311,1.504Zm-0,-14.369c1.307,-0 1.961,-0.789 1.961,-2.367l-0,-1.859c-0,-1.578 -0.654,-2.367 -1.961,-2.367c-1.307,-0 -1.961,0.789 -1.961,2.367l-0,1.859c-0,1.578 0.654,2.367 1.961,2.367Zm-0,10.988c1.397,0 2.096,-0.89 2.096,-2.671l0,-2.265c0,-1.781 -0.699,-2.671 -2.096,-2.671c-1.398,0 -2.096,0.89 -2.096,2.671l-0,2.265c-0,1.781 0.698,2.671 2.096,2.671Z" style="fill:#fff;fill-rule:nonzero;" />
                <path id="_9" serif:id="9" d="M491.058,65.323c-1.803,0 -3.178,-0.512 -4.124,-1.538c-0.947,-1.025 -1.42,-2.496 -1.42,-4.412l-0,-0.44l3.516,0l-0,0.676c-0,1.556 0.642,2.333 1.927,2.333c0.699,0 1.217,-0.214 1.555,-0.642c0.338,-0.428 0.507,-1.183 0.507,-2.265l0,-4.531l-0.067,0c-0.654,1.375 -1.781,2.063 -3.381,2.063c-1.353,-0 -2.378,-0.463 -3.077,-1.387c-0.699,-0.924 -1.048,-2.265 -1.048,-4.023l-0,-4.226c-0,-1.894 0.485,-3.359 1.454,-4.396c0.969,-1.037 2.367,-1.555 4.192,-1.555c1.826,-0 3.224,0.518 4.193,1.555c0.969,1.037 1.454,2.502 1.454,4.396l-0,12.239c-0,4.102 -1.894,6.153 -5.681,6.153Zm0.034,-12.138c1.285,0 1.927,-0.777 1.927,-2.332l0,-4.193c0,-1.533 -0.642,-2.299 -1.927,-2.299c-1.285,-0 -1.927,0.766 -1.927,2.299l0,4.193c0,1.555 0.642,2.332 1.927,2.332Z" style="fill:#fff;fill-rule:nonzero;" />
                <path id="_1" serif:id="1" d="M477.5,46.753l-3.888,-0l0,-2.713c1.06,0 1.91,-0.093 2.553,-0.278c0.642,-0.186 1.155,-0.493 1.538,-0.922c0.383,-0.429 0.722,-1.049 1.015,-1.86l2.502,-0l-0,24.343l-3.72,0l0,-18.57Z" style="fill:#fff;fill-rule:nonzero;" />
                <rect id="Dot" x="460.527" y="61.74" width="3.584" height="3.584" style="fill:#fff;fill-rule:nonzero;" />
                <path id="T" d="M453.596,44.457l-3.888,0l0,-3.477l11.496,-0l-0,3.477l-3.889,0l0,20.866l-3.719,0l0,-20.866Z" style="fill:#fff;fill-rule:nonzero;" />
                <path id="S" d="M442.946,65.323c-1.803,0 -3.167,-0.512 -4.091,-1.538c-0.924,-1.025 -1.386,-2.496 -1.386,-4.412l-0,-1.353l3.516,0l-0,1.623c-0,1.533 0.642,2.299 1.927,2.299c0.631,0 1.11,-0.186 1.437,-0.557c0.327,-0.372 0.49,-0.975 0.49,-1.809c0,-0.992 -0.225,-1.866 -0.676,-2.621c-0.451,-0.755 -1.285,-1.662 -2.502,-2.721c-1.533,-1.353 -2.603,-2.576 -3.212,-3.669c-0.608,-1.093 -0.913,-2.327 -0.913,-3.702c0,-1.871 0.474,-3.319 1.42,-4.345c0.947,-1.025 2.322,-1.538 4.125,-1.538c1.781,-0 3.128,0.513 4.041,1.538c0.912,1.026 1.369,2.497 1.369,4.413l-0,0.98l-3.516,0l-0,-1.217c-0,-0.812 -0.158,-1.403 -0.474,-1.775c-0.315,-0.372 -0.777,-0.558 -1.386,-0.558c-1.24,-0 -1.86,0.755 -1.86,2.265c0,0.857 0.231,1.657 0.694,2.401c0.462,0.744 1.301,1.645 2.518,2.705c1.556,1.352 2.626,2.58 3.212,3.685c0.586,1.104 0.88,2.401 0.88,3.888c-0,1.939 -0.479,3.426 -1.437,4.463c-0.958,1.037 -2.35,1.555 -4.176,1.555Z" style="fill:#fff;fill-rule:nonzero;" />
                <path id="E" d="M425.77,40.98l10.143,-0l0,3.477l-6.424,0l0,6.434l5.106,0l-0,3.478l-5.106,-0l0,7.477l6.424,-0l0,3.477l-10.143,0l0,-24.343Z" style="fill:#fff;fill-rule:nonzero;" />
            </g>
            <path id="Left-Star" serif:id="Left Star" d="M403.483,40.98l3.022,9.298l9.777,0l-7.91,5.747l3.021,9.298l-7.91,-5.746l-7.909,5.746l3.021,-9.298l-7.91,-5.747l9.777,0l3.021,-9.298Z" style="fill:#f2c83b;" />
        </g>
    </g>
</svg>