<?xml version="1.0" encoding="UTF-8" standalone="no"?>
<!DOCTYPE svg PUBLIC "-//W3C//DTD SVG 1.1//EN" "http://www.w3.org/Graphics/SVG/1.1/DTD/svg11.dtd"><svg width="100%" height="100%" viewBox="0 0 280 114" version="1.1" xmlns="http://www.w3.org/2000/svg" xmlns:xlink="http://www.w3.org/1999/xlink" xml:space="preserve" xmlns:serif="http://www.serif.com/" style="fill-rule:evenodd;clip-rule:evenodd;stroke-linejoin:round;stroke-miterlimit:2;">
    <g id="Small-With-Transluscent-Roof" serif:id="Small With Transluscent Roof">
        <path id="Roof" d="M102.252,30.507l37.715,-30.507l139.966,113.217l-57.542,0l-82.424,-66.043l-82.425,66.043l-57.542,0l58.29,-47.149l-0,-66.068l43.962,0l0,30.507Z" style="fill-opacity:0.1;" />
        <g id="Roofing---Gutter-Maintenance" serif:id="Roofing &amp; Gutter Maintenance">
            <path d="M0,92.509l4.787,0c1.664,0 2.878,0.384 3.642,1.152c0.763,0.768 1.145,1.95 1.145,3.544l-0,1.254c-0,2.12 -0.705,3.461 -2.115,4.025l0,0.058c0.784,0.234 1.337,0.71 1.66,1.43c0.323,0.719 0.484,1.682 0.484,2.887l0,3.588c0,0.583 0.02,1.055 0.059,1.414c0.039,0.36 0.137,0.715 0.294,1.065l-3.29,-0c-0.117,-0.331 -0.195,-0.642 -0.234,-0.934c-0.04,-0.291 -0.059,-0.816 -0.059,-1.575l-0,-3.733c-0,-0.933 -0.152,-1.585 -0.455,-1.954c-0.304,-0.369 -0.828,-0.554 -1.572,-0.554l-1.116,-0l0,8.75l-3.23,-0l0,-20.417Zm4.405,8.75c0.646,0 1.131,-0.165 1.454,-0.496c0.323,-0.33 0.484,-0.884 0.484,-1.662l0,-1.575c0,-0.739 -0.132,-1.274 -0.396,-1.604c-0.264,-0.331 -0.68,-0.496 -1.248,-0.496l-1.469,-0l0,5.833l1.175,0Z" style="fill-rule:nonzero;" />
            <path d="M16.035,113.217c-1.586,0 -2.8,-0.447 -3.642,-1.341c-0.842,-0.895 -1.263,-2.159 -1.263,-3.792l0,-10.733c0,-1.634 0.421,-2.897 1.263,-3.792c0.842,-0.894 2.056,-1.342 3.642,-1.342c1.586,0 2.8,0.448 3.641,1.342c0.842,0.895 1.263,2.158 1.263,3.792l0,10.733c0,1.633 -0.421,2.897 -1.263,3.792c-0.841,0.894 -2.055,1.341 -3.641,1.341Zm-0,-2.916c1.116,-0 1.674,-0.671 1.674,-2.013l-0,-11.141c-0,-1.342 -0.558,-2.013 -1.674,-2.013c-1.116,0 -1.674,0.671 -1.674,2.013l-0,11.141c-0,1.342 0.558,2.013 1.674,2.013Z" style="fill-rule:nonzero;" />
            <path d="M27.312,113.217c-1.586,0 -2.8,-0.447 -3.642,-1.341c-0.841,-0.895 -1.262,-2.159 -1.262,-3.792l-0,-10.733c-0,-1.634 0.421,-2.897 1.262,-3.792c0.842,-0.894 2.056,-1.342 3.642,-1.342c1.586,0 2.8,0.448 3.642,1.342c0.841,0.895 1.262,2.158 1.262,3.792l0,10.733c0,1.633 -0.421,2.897 -1.262,3.792c-0.842,0.894 -2.056,1.341 -3.642,1.341Zm0,-2.916c1.116,-0 1.674,-0.671 1.674,-2.013l-0,-11.141c-0,-1.342 -0.558,-2.013 -1.674,-2.013c-1.116,0 -1.674,0.671 -1.674,2.013l0,11.141c0,1.342 0.558,2.013 1.674,2.013Z" style="fill-rule:nonzero;" />
            <path d="M33.92,92.509l8.546,0l-0,2.917l-5.316,-0l0,5.687l4.17,0l0,2.917l-4.17,-0l0,8.896l-3.23,-0l-0,-20.417Z" style="fill-rule:nonzero;" />
            <rect x="43.552" y="92.509" width="3.23" height="20.417" style="fill-rule:nonzero;" />
            <path d="M48.721,92.509l4.053,0l3.142,12.221l0.059,-0l-0,-12.221l2.878,0l-0,20.417l-3.319,-0l-3.876,-14.904l-0.059,-0l0,14.904l-2.878,-0l0,-20.417Z" style="fill-rule:nonzero;" />
            <path d="M65.373,113.217c-1.567,0 -2.761,-0.442 -3.583,-1.327c-0.823,-0.884 -1.234,-2.153 -1.234,-3.806l0,-10.733c0,-1.653 0.411,-2.922 1.234,-3.806c0.822,-0.885 2.016,-1.328 3.583,-1.328c1.566,0 2.76,0.443 3.582,1.328c0.823,0.884 1.234,2.153 1.234,3.806l-0,1.75l-3.054,-0l-0,-1.954c-0,-1.342 -0.558,-2.013 -1.674,-2.013c-1.116,0 -1.674,0.671 -1.674,2.013l-0,11.17c-0,1.323 0.558,1.984 1.674,1.984c1.116,-0 1.674,-0.661 1.674,-1.984l-0,-3.995l-1.616,-0l0,-2.917l4.67,-0l-0,6.679c-0,1.653 -0.411,2.922 -1.234,3.806c-0.822,0.885 -2.016,1.327 -3.582,1.327Z" style="fill-rule:nonzero;" />
            <path d="M79.41,113.217c-1.174,0 -2.065,-0.398 -2.672,-1.195c-0.607,-0.798 -0.91,-1.955 -0.91,-3.471l-0,-2.129c-0,-1.07 0.186,-1.964 0.558,-2.684c0.371,-0.719 0.978,-1.244 1.82,-1.575l0,-0.058c-0.763,-0.311 -1.326,-0.812 -1.688,-1.502c-0.363,-0.69 -0.544,-1.58 -0.544,-2.669l0,-0.379c0,-1.653 0.402,-2.907 1.204,-3.763c0.803,-0.855 2.007,-1.283 3.613,-1.283l3.7,0l-0,2.917l-3.642,-0c-0.528,-0 -0.934,0.155 -1.218,0.466c-0.284,0.312 -0.426,0.817 -0.426,1.517l-0,1.254c-0,0.778 0.161,1.332 0.484,1.663c0.323,0.33 0.808,0.496 1.454,0.496l1.263,-0l-0,-2.275l3.172,-0l-0,2.275l0.91,-0l0,2.916l-0.91,0l-0,6.709c-0,0.583 0.019,1.055 0.058,1.414c0.039,0.36 0.137,0.715 0.294,1.065l-3.23,-0c-0.157,-0.428 -0.255,-0.963 -0.294,-1.604l-0.059,-0c-0.352,0.641 -0.759,1.118 -1.219,1.429c-0.46,0.311 -1.032,0.466 -1.718,0.466Zm1.204,-2.916c1.019,-0 1.616,-0.613 1.792,-1.838l-0,-4.725l-1.234,0c-0.744,0 -1.282,0.2 -1.615,0.598c-0.333,0.399 -0.499,1.065 -0.499,1.998l-0,2.071c-0,0.681 0.137,1.167 0.411,1.458c0.274,0.292 0.656,0.438 1.145,0.438Z" style="fill-rule:nonzero;" />
            <path d="M96.62,113.217c-1.566,0 -2.761,-0.442 -3.583,-1.327c-0.822,-0.884 -1.233,-2.153 -1.233,-3.806l-0,-10.733c-0,-1.653 0.411,-2.922 1.233,-3.806c0.822,-0.885 2.017,-1.328 3.583,-1.328c1.566,0 2.76,0.443 3.583,1.328c0.822,0.884 1.233,2.153 1.233,3.806l0,1.75l-3.054,-0l-0,-1.954c-0,-1.342 -0.558,-2.013 -1.674,-2.013c-1.116,0 -1.674,0.671 -1.674,2.013l0,11.17c0,1.323 0.558,1.984 1.674,1.984c1.116,-0 1.674,-0.661 1.674,-1.984l-0,-3.995l-1.615,-0l-0,-2.917l4.669,-0l0,6.679c0,1.653 -0.411,2.922 -1.233,3.806c-0.823,0.885 -2.017,1.327 -3.583,1.327Z" style="fill-rule:nonzero;" />
            <path d="M107.75,113.217c-1.566,0 -2.76,-0.442 -3.583,-1.327c-0.822,-0.884 -1.233,-2.153 -1.233,-3.806l-0,-15.575l3.23,0l0,15.808c0,0.7 0.142,1.206 0.426,1.517c0.284,0.311 0.69,0.467 1.219,0.467c0.529,-0 0.935,-0.156 1.219,-0.467c0.284,-0.311 0.426,-0.817 0.426,-1.517l-0,-15.808l3.113,0l-0,15.575c-0,1.653 -0.412,2.922 -1.234,3.806c-0.822,0.885 -2.016,1.327 -3.583,1.327Z" style="fill-rule:nonzero;" />
            <path d="M116.913,95.426l-3.377,-0l-0,-2.917l9.985,0l-0,2.917l-3.378,-0l0,17.5l-3.23,-0l-0,-17.5Z" style="fill-rule:nonzero;" />
            <path d="M127.133,95.426l-3.377,-0l-0,-2.917l9.985,0l-0,2.917l-3.378,-0l0,17.5l-3.23,-0l-0,-17.5Z" style="fill-rule:nonzero;" />
            <path d="M134.827,92.509l8.811,0l-0,2.917l-5.58,-0l-0,5.396l4.434,-0l0,2.916l-4.434,0l-0,6.271l5.58,0l-0,2.917l-8.811,-0l0,-20.417Z" style="fill-rule:nonzero;" />
            <path d="M145.018,92.509l4.787,0c1.664,0 2.878,0.384 3.641,1.152c0.764,0.768 1.146,1.95 1.146,3.544l-0,1.254c-0,2.12 -0.705,3.461 -2.115,4.025l0,0.058c0.783,0.234 1.337,0.71 1.66,1.43c0.323,0.719 0.484,1.682 0.484,2.887l0,3.588c0,0.583 0.02,1.055 0.059,1.414c0.039,0.36 0.137,0.715 0.294,1.065l-3.29,-0c-0.117,-0.331 -0.195,-0.642 -0.235,-0.934c-0.039,-0.291 -0.058,-0.816 -0.058,-1.575l-0,-3.733c-0,-0.933 -0.152,-1.585 -0.455,-1.954c-0.304,-0.369 -0.828,-0.554 -1.572,-0.554l-1.116,-0l0,8.75l-3.23,-0l-0,-20.417Zm4.405,8.75c0.646,0 1.131,-0.165 1.454,-0.496c0.323,-0.33 0.484,-0.884 0.484,-1.662l0,-1.575c0,-0.739 -0.132,-1.274 -0.396,-1.604c-0.264,-0.331 -0.68,-0.496 -1.248,-0.496l-1.469,-0l0,5.833l1.175,0Z" style="fill-rule:nonzero;" />
            <path d="M160.612,92.509l4.611,0l2.056,14.613l0.058,-0l2.056,-14.613l4.611,0l-0,20.417l-3.054,-0l-0,-15.459l-0.059,0l-2.35,15.459l-2.701,-0l-2.35,-15.459l-0.059,0l0,15.459l-2.819,-0l0,-20.417Z" style="fill-rule:nonzero;" />
            <path d="M178.438,92.509l4.376,0l3.348,20.417l-3.23,-0l-0.588,-4.054l0,0.058l-3.671,-0l-0.587,3.996l-2.996,-0l3.348,-20.417Zm3.525,13.65l-1.439,-10.092l-0.059,0l-1.41,10.092l2.908,0Z" style="fill-rule:nonzero;" />
            <rect x="187.249" y="92.509" width="3.23" height="20.417" style="fill-rule:nonzero;" />
            <path d="M192.417,92.509l4.053,0l3.143,12.221l0.058,-0l0,-12.221l2.878,0l0,20.417l-3.318,-0l-3.877,-14.904l-0.059,-0l0,14.904l-2.878,-0l0,-20.417Z" style="fill-rule:nonzero;" />
            <path d="M207.013,95.426l-3.377,-0l-0,-2.917l9.985,0l-0,2.917l-3.377,-0l-0,17.5l-3.231,-0l0,-17.5Z" style="fill-rule:nonzero;" />
            <path d="M214.708,92.509l8.81,0l-0,2.917l-5.58,-0l0,5.396l4.435,-0l-0,2.916l-4.435,0l0,6.271l5.58,0l-0,2.917l-8.81,-0l-0,-20.417Z" style="fill-rule:nonzero;" />
            <path d="M224.898,92.509l4.053,0l3.142,12.221l0.059,-0l0,-12.221l2.878,0l0,20.417l-3.319,-0l-3.876,-14.904l-0.059,-0l0,14.904l-2.878,-0l0,-20.417Z" style="fill-rule:nonzero;" />
            <path d="M239.465,92.509l4.375,0l3.348,20.417l-3.23,-0l-0.588,-4.054l0,0.058l-3.67,-0l-0.588,3.996l-2.995,-0l3.348,-20.417Zm3.524,13.65l-1.439,-10.092l-0.059,0l-1.41,10.092l2.908,0Z" style="fill-rule:nonzero;" />
            <path d="M248.275,92.509l4.053,0l3.142,12.221l0.059,-0l-0,-12.221l2.878,0l-0,20.417l-3.319,-0l-3.876,-14.904l-0.059,-0l-0,14.904l-2.878,-0l-0,-20.417Z" style="fill-rule:nonzero;" />
            <path d="M264.897,113.217c-1.547,0 -2.726,-0.437 -3.539,-1.312c-0.812,-0.875 -1.219,-2.11 -1.219,-3.704l0,-10.967c0,-1.594 0.407,-2.829 1.219,-3.704c0.813,-0.875 1.992,-1.313 3.539,-1.313c1.547,0 2.726,0.438 3.539,1.313c0.812,0.875 1.219,2.11 1.219,3.704l-0,2.158l-3.055,0l0,-2.362c0,-1.264 -0.538,-1.896 -1.615,-1.896c-1.077,0 -1.615,0.632 -1.615,1.896l-0,11.404c-0,1.245 0.538,1.867 1.615,1.867c1.077,-0 1.615,-0.622 1.615,-1.867l0,-3.121l3.055,0l-0,2.888c-0,1.594 -0.407,2.829 -1.219,3.704c-0.813,0.875 -1.992,1.312 -3.539,1.312Z" style="fill-rule:nonzero;" />
            <path d="M271.123,92.509l8.81,0l0,2.917l-5.58,-0l0,5.396l4.435,-0l-0,2.916l-4.435,0l0,6.271l5.58,0l0,2.917l-8.81,-0l0,-20.417Z" style="fill-rule:nonzero;" />
        </g>
        <g id="PREMIER">
            <path d="M0,14.882l17.55,0c5.922,0 10.364,1.589 13.325,4.767c2.961,3.177 4.442,7.836 4.442,13.975l-0,7.475c-0,6.139 -1.481,10.797 -4.442,13.975c-2.961,3.177 -7.403,4.766 -13.325,4.766l-5.633,0l-0,30.875l-11.917,0l0,-75.833Zm17.55,34.125c1.95,0 3.413,-0.542 4.388,-1.625c0.975,-1.083 1.462,-2.925 1.462,-5.525l0,-8.992c0,-2.6 -0.487,-4.441 -1.462,-5.525c-0.975,-1.083 -2.438,-1.625 -4.388,-1.625l-5.633,0l-0,23.292l5.633,0Z" style="fill:#AB2330;fill-rule:nonzero;" />
            <path d="M41.817,14.882l17.658,0c6.139,0 10.617,1.426 13.433,4.279c2.817,2.853 4.225,7.24 4.225,13.163l0,4.658c0,7.872 -2.6,12.856 -7.8,14.95l0,0.217c2.889,0.866 4.93,2.636 6.121,5.308c1.192,2.672 1.788,6.247 1.788,10.725l-0,13.325c-0,2.167 0.072,3.918 0.216,5.254c0.145,1.336 0.506,2.654 1.084,3.954l-12.134,0c-0.433,-1.227 -0.722,-2.383 -0.866,-3.466c-0.145,-1.084 -0.217,-3.034 -0.217,-5.85l0,-13.867c0,-3.467 -0.56,-5.886 -1.679,-7.258c-1.12,-1.373 -3.052,-2.059 -5.796,-2.059l-4.117,0l0,32.5l-11.916,0l-0,-75.833Zm16.25,32.5c2.383,0 4.171,-0.614 5.362,-1.842c1.192,-1.227 1.788,-3.286 1.788,-6.175l-0,-5.85c-0,-2.744 -0.488,-4.73 -1.463,-5.958c-0.975,-1.228 -2.51,-1.842 -4.604,-1.842l-5.417,0l0,21.667l4.334,0Z" style="fill:#AB2330;fill-rule:nonzero;" />
            <path d="M85.475,14.882l32.5,0l0,10.833l-20.583,0l-0,20.042l16.358,0l0,10.833l-16.358,0l-0,23.292l20.583,0l0,10.833l-32.5,0l0,-75.833Z" style="fill:#AB2330;fill-rule:nonzero;" />
            <path d="M124.8,14.882l17.008,0l7.584,54.275l0.216,0l7.584,-54.275l17.008,0l0,75.833l-11.267,0l0,-57.416l-0.216,-0l-8.667,57.416l-9.967,0l-8.666,-57.416l-0.217,-0l0,57.416l-10.4,0l0,-75.833Z" style="fill:#AB2330;fill-rule:nonzero;" />
            <rect x="183.083" y="14.882" width="11.917" height="75.833" style="fill:#AB2330;fill-rule:nonzero;" />
            <path d="M203.883,14.882l32.5,0l0,10.833l-20.583,0l0,20.042l16.358,0l0,10.833l-16.358,0l0,23.292l20.583,0l0,10.833l-32.5,0l0,-75.833Z" style="fill:#AB2330;fill-rule:nonzero;" />
            <path d="M243.208,14.882l17.659,0c6.139,0 10.616,1.426 13.433,4.279c2.817,2.853 4.225,7.24 4.225,13.163l0,4.658c0,7.872 -2.6,12.856 -7.8,14.95l0,0.217c2.889,0.866 4.929,2.636 6.121,5.308c1.192,2.672 1.787,6.247 1.787,10.725l0,13.325c0,2.167 0.073,3.918 0.217,5.254c0.144,1.336 0.506,2.654 1.083,3.954l-12.133,0c-0.433,-1.227 -0.722,-2.383 -0.867,-3.466c-0.144,-1.084 -0.216,-3.034 -0.216,-5.85l-0,-13.867c-0,-3.467 -0.56,-5.886 -1.679,-7.258c-1.12,-1.373 -3.052,-2.059 -5.796,-2.059l-4.117,0l0,32.5l-11.917,0l0,-75.833Zm16.25,32.5c2.384,0 4.171,-0.614 5.363,-1.842c1.192,-1.227 1.787,-3.286 1.787,-6.175l0,-5.85c0,-2.744 -0.487,-4.73 -1.462,-5.958c-0.975,-1.228 -2.51,-1.842 -4.604,-1.842l-5.417,0l0,21.667l4.333,0Z" style="fill:#AB2330;fill-rule:nonzero;" />
        </g>
    </g>
</svg>